# xmcd
#
# Track frame offsets: 
#        182
#        7070
#        18032
#        30295
#        42582
#        60045
#        74082
#        88707
#        102132
#        111407
#        123420
#        140957
#        154007
#        164345
#        173657
#        185382
#        199157
#        209357
#        223395
#        237020
#        253882
#        269645
#        282407
#        296957
#
# Disc length: 4160 seconds
#
# Revision: 5
# Processed by: cddbd v1.5.2PL0 Copyright (c) Steve Scherf et al.
# Submitted via: ExactAudioCopyFreeDBPlugin 1.0
#
DISCID=72103e18
DTITLE=Shirley Horn - Loads of love and Shirley Horn with Horns
DYEAR=1963
DGENRE=Jazz
TTITLE0=Wild is love
TTITLE1=Loads of love
TTITLE2=My future just passed
TTITLE3=There's a boat that's leavin' soon for New York
TTITLE4=Ten Cents a dance
TTITLE5=Only the lonely
TTITLE6=The second time around
TTITLE7=Do it again
TTITLE8=It's love
TTITLE9=That's no joke
TTITLE10=Love for sale
TTITLE11=Who am I
TTITLE12=On the street where you live
TTITLE13=The great city
TTITLE14=That old black magic
TTITLE15=Mack the Knife
TTITLE16=Come dance with me
TTITLE17=Let me love you
TTITLE18=After you've gone
TTITLE19=Wouldn't it be loverly
TTITLE20=Go away little boy
TTITLE21=I'm in the mood for love
TTITLE22=The good life
TTITLE23=Wee small hours
EXTD=YEAR: 1963
EXTT0=
EXTT1=
EXTT2=
EXTT3=
EXTT4=
EXTT5=
EXTT6=
EXTT7=
EXTT8=
EXTT9=
EXTT10=
EXTT11=
EXTT12=
EXTT13=
EXTT14=
EXTT15=
EXTT16=
EXTT17=
EXTT18=
EXTT19=
EXTT20=
EXTT21=
EXTT22=
EXTT23=
PLAYORDER=
